<svg xmlns="http://www.w3.org/2000/svg" viewBox="0 0 1254 1254" role="img" aria-labelledby="title desc">
  <title id="title">Gothic HU lettermark</title>
  <desc id="desc">A white gothic H and U monogram on a black field.</desc>
  <rect width="1254" height="1254" fill="#000"/>
  <path d="M 474 118 L 594 118 L 594 573 L 602 572 L 602 571 L 605 571 L 605 570 L 608 570 L 608 569 L 611 569 L 611 568 L 615 568 L 615 567 L 622 566 L 622 565 L 625 565 L 625 564 L 628 564 L 628 563 L 632 563 L 632 562 L 635 562 L 635 561 L 639 561 L 639 560 L 646 559 L 646 558 L 649 558 L 649 557 L 652 557 L 652 556 L 656 556 L 656 555 L 659 555 L 659 554 L 666 553 L 666 119 L 667 119 L 667 118 L 791 118 L 791 516 L 792 516 L 792 515 L 795 515 L 795 514 L 802 513 L 802 512 L 806 512 L 806 511 L 809 511 L 809 510 L 812 510 L 812 509 L 816 509 L 816 508 L 819 508 L 819 507 L 822 507 L 822 506 L 830 505 L 830 504 L 833 504 L 833 503 L 836 503 L 836 502 L 839 502 L 839 501 L 843 501 L 843 500 L 846 500 L 846 499 L 850 499 L 850 498 L 853 498 L 853 497 L 856 497 L 856 496 L 860 496 L 860 495 L 863 495 L 863 494 L 866 494 L 866 493 L 869 492 L 869 316 L 1035 316 L 1032 320 L 1030 320 L 1030 321 L 1029 321 L 1029 322 L 1028 322 L 1028 323 L 1027 323 L 1027 324 L 1021 329 L 1021 331 L 1020 331 L 1020 332 L 1018 333 L 1018 335 L 1015 337 L 1015 339 L 1013 340 L 1012 344 L 1010 345 L 1010 347 L 1009 347 L 1009 349 L 1008 349 L 1008 351 L 1007 351 L 1007 353 L 1006 353 L 1006 355 L 1005 355 L 1005 357 L 1004 357 L 1004 359 L 1003 359 L 1003 362 L 1002 362 L 1002 364 L 1001 364 L 1001 367 L 1000 367 L 999 372 L 998 372 L 998 375 L 997 375 L 997 379 L 996 379 L 996 382 L 995 382 L 994 390 L 993 390 L 992 401 L 991 401 L 991 407 L 990 407 L 990 415 L 989 415 L 989 428 L 988 428 L 988 806 L 989 806 L 989 819 L 990 819 L 990 828 L 991 828 L 991 834 L 992 834 L 993 844 L 994 844 L 994 848 L 995 848 L 995 852 L 996 852 L 996 855 L 997 855 L 997 859 L 998 859 L 999 865 L 1000 865 L 1000 867 L 1001 867 L 1001 870 L 1002 870 L 1002 872 L 1003 872 L 1003 875 L 1004 875 L 1004 877 L 1005 877 L 1005 879 L 1006 879 L 1008 885 L 1010 886 L 1011 890 L 1013 891 L 1013 893 L 1015 894 L 1015 896 L 1018 898 L 1018 900 L 1019 900 L 1019 901 L 1020 901 L 1020 902 L 1021 902 L 1021 903 L 1022 903 L 1022 904 L 1023 904 L 1023 905 L 1024 905 L 1024 906 L 1025 906 L 1025 907 L 1026 907 L 1031 913 L 1032 913 L 1032 914 L 1034 914 L 1035 916 L 869 916 L 869 617 L 861 618 L 861 619 L 858 619 L 858 620 L 855 620 L 855 621 L 851 621 L 851 622 L 848 622 L 848 623 L 845 623 L 845 624 L 841 624 L 841 625 L 838 625 L 838 626 L 835 626 L 835 627 L 831 627 L 831 628 L 828 628 L 828 629 L 825 629 L 825 630 L 817 631 L 817 632 L 814 632 L 814 633 L 811 633 L 811 634 L 808 634 L 808 635 L 804 635 L 804 636 L 801 636 L 801 637 L 797 637 L 797 638 L 791 639 L 791 1112 L 474 1112 L 474 732 L 469 733 L 469 734 L 466 734 L 466 735 L 462 735 L 462 736 L 459 736 L 459 737 L 455 737 L 455 738 L 452 738 L 452 739 L 449 739 L 449 740 L 446 740 L 446 741 L 442 741 L 442 742 L 439 742 L 439 743 L 435 743 L 435 744 L 432 744 L 432 745 L 429 745 L 429 746 L 425 746 L 425 747 L 422 747 L 422 748 L 419 748 L 419 749 L 415 749 L 415 750 L 412 750 L 412 751 L 408 751 L 408 752 L 405 752 L 405 753 L 402 753 L 402 754 L 398 754 L 398 755 L 395 756 L 395 916 L 230 916 L 235 910 L 237 910 L 237 909 L 242 905 L 242 903 L 243 903 L 243 902 L 246 900 L 246 898 L 249 896 L 249 894 L 250 894 L 251 891 L 253 890 L 253 888 L 254 888 L 254 886 L 255 886 L 255 884 L 256 884 L 256 882 L 257 882 L 257 880 L 258 880 L 258 878 L 259 878 L 259 876 L 260 876 L 260 874 L 261 874 L 261 871 L 262 871 L 262 869 L 263 869 L 263 867 L 264 867 L 264 864 L 265 864 L 265 861 L 266 861 L 266 858 L 267 858 L 267 855 L 268 855 L 268 851 L 269 851 L 269 848 L 270 848 L 270 843 L 271 843 L 271 838 L 272 838 L 272 833 L 273 833 L 273 827 L 274 827 L 274 819 L 275 819 L 275 807 L 276 807 L 276 421 L 275 421 L 275 411 L 274 411 L 274 404 L 273 404 L 273 398 L 272 398 L 271 387 L 270 387 L 270 383 L 269 383 L 269 380 L 268 380 L 268 376 L 267 376 L 267 373 L 266 373 L 266 370 L 265 370 L 264 364 L 263 364 L 263 362 L 262 362 L 262 360 L 261 360 L 261 357 L 260 357 L 260 355 L 259 355 L 259 353 L 258 353 L 258 351 L 257 351 L 257 349 L 256 349 L 256 347 L 255 347 L 255 345 L 253 344 L 252 340 L 251 340 L 250 337 L 247 335 L 247 333 L 243 330 L 243 328 L 242 328 L 237 322 L 235 322 L 232 318 L 230 318 L 230 316 L 395 316 L 395 631 L 398 631 L 398 630 L 401 630 L 401 629 L 405 629 L 405 628 L 408 628 L 408 627 L 412 627 L 412 626 L 415 626 L 415 625 L 418 625 L 418 624 L 422 624 L 422 623 L 425 623 L 425 622 L 428 622 L 428 621 L 432 621 L 432 620 L 435 620 L 435 619 L 439 619 L 439 618 L 442 618 L 442 617 L 446 617 L 446 616 L 449 616 L 449 615 L 452 615 L 452 614 L 456 614 L 456 613 L 459 613 L 459 612 L 463 612 L 463 611 L 466 611 L 466 610 L 473 609 L 473 608 L 474 608 Z M 664 675 L 664 676 L 661 676 L 661 677 L 658 677 L 658 678 L 654 678 L 654 679 L 651 679 L 651 680 L 648 680 L 648 681 L 644 681 L 644 682 L 641 682 L 641 683 L 637 683 L 637 684 L 634 684 L 634 685 L 631 685 L 631 686 L 627 686 L 627 687 L 624 687 L 624 688 L 621 688 L 621 689 L 617 689 L 617 690 L 614 690 L 614 691 L 611 691 L 611 692 L 607 692 L 607 693 L 604 693 L 604 694 L 601 694 L 601 695 L 597 695 L 597 696 L 594 697 L 594 987 L 595 987 L 595 991 L 596 991 L 597 995 L 598 995 L 599 997 L 601 997 L 601 998 L 604 998 L 604 999 L 657 999 L 657 998 L 660 998 L 660 997 L 665 993 L 665 990 L 666 990 L 666 675 Z" fill="#fff" fill-rule="evenodd"/>
</svg>
